<svg height="480pt" viewBox="-4 0 480 480" width="480pt" xmlns="http://www.w3.org/2000/svg">
    <path d="m421.824219 129.359375-15.769531-2.71875c4.617187-26.769531 1.066406-47.609375-10.015626-58.671875-11.015624-11.023438-32.207031-14.625-58.671874-10l-2.75-15.769531c31.917968-5.550781 57.839843-.4375 72.734374 14.457031 15.089844 15.054688 20.089844 40.199219 14.472657 72.703125zm0 0"/>
    <path d="m413.089844 162.609375-15.128906-5.21875c.488281-1.421875.96875-2.847656 1.429687-4.269531 1.226563-3.792969 2.328125-7.519532 3.296875-11.175782l15.472656 4.117188c-1.046875 3.921875-2.222656 7.914062-3.542968 11.992188-.496094 1.511718-1.007813 3.035156-1.527344 4.554687zm0 0"/>
    <path d="m399.398438 195.496094-14.390626-6.992188c2.527344-5.214844 4.878907-10.414062 7.039063-15.59375l14.769531 6.167969c-2.289062 5.449219-4.746094 10.929687-7.417968 16.417969zm0 0"/>
    <path d="m429.984375 34.015625c-25.289063-25.289063-65.496094-32.289063-114.695313-20.441406 2.464844 4.683593 3.984376 9.867187 4.40625 15.410156 43.199219-10.289063 77.890626-4.738281 98.976563 16.34375 51.03125 51.03125 8.808594 176.296875-94.121094 279.230469-83.175781 83.175781-185.269531 128.121094-246.765625 112-1.785156 5.335937-4.585937 10.167968-8.296875 14.234375 10.832031 3.328125 22.6875 5 35.398438 5 66.496093 0 155.371093-44.3125 230.984375-119.929688 111.007812-111.023437 152.351562-243.605469 94.113281-301.847656zm0 0"/>
    <path d="m27.574219 386.167969c-6.910157-26.296875-3.0625-60.464844 11.234375-98.167969h-6.808594v-16c0-2.230469-.472656-4.351562-1.296875-6.28125-22.144531 49.65625-28.230469 94.6875-17.550781 128.832031 4.121094-3.75 9.007812-6.589843 14.421875-8.382812zm0 0"/>
    <path d="m241.601562 42.59375c-39.234374 20.980469-78.089843 50.167969-113.472656 85.542969-17.714844 17.710937-33.703125 36.320312-48.136718 55.457031v8.40625c0 4.585938 1.960937 8.6875 5.054687 11.609375 15.832031-22.25 34-43.777344 54.394531-64.167969 34.199219-34.203125 71.679688-62.386718 109.453125-82.609375-3.335937-4.160156-5.832031-8.960937-7.292969-14.238281zm0 0"/>
    <path d="m440 304h-16c0 17.648438-14.351562 32-32 32v16c17.648438 0 32 14.351562 32 32h16c0-17.648438 14.351562-32 32-32v-16c-17.648438 0-32-14.351562-32-32zm0 0"/><path d="m64 192h-16c0 17.648438-14.351562 32-32 32v16c17.648438 0 32 14.351562 32 32h16c0-17.648438 14.351562-32 32-32v-16c-17.648438 0-32-14.351562-32-32zm0 0"/><path d="m272 432c-13.230469 0-24 10.769531-24 24s10.769531 24 24 24 24-10.769531 24-24-10.769531-24-24-24zm0 0"/>
    <path d="m184 48c13.230469 0 24-10.769531 24-24s-10.769531-24-24-24-24 10.769531-24 24 10.769531 24 24 24zm0 0"/>
    <path d="m40 400c-13.230469 0-24 10.769531-24 24s10.769531 24 24 24 24-10.769531 24-24-10.769531-24-24-24zm0 0"/>
    <path d="m280 56c13.230469 0 24-10.769531 24-24s-10.769531-24-24-24-24 10.769531-24 24 10.769531 24 24 24zm0 0"/>
    <path d="m392 400c-17.648438 0-32 14.351562-32 32s14.351562 32 32 32 32-14.351562 32-32-14.351562-32-32-32zm0 0"/>
    <path d="m64 0c-35.289062 0-64 28.710938-64 64s28.710938 64 64 64 64-28.710938 64-64-28.710938-64-64-64zm-40 40c0-13.230469 10.769531-24 24-24s24 10.769531 24 24h-16c0-4.40625-3.585938-8-8-8s-8 3.59375-8 8 3.585938 8 8 8v16c-13.230469 0-24-10.769531-24-24zm40 80c-13.230469 0-24-10.769531-24-24h16c0 4.40625 3.585938 8 8 8s8-3.59375 8-8h16c0 13.230469-10.769531 24-24 24zm24-32v-16c4.414062 0 8-3.59375 8-8s-3.585938-8-8-8v-16c13.230469 0 24 10.769531 24 24s-10.769531 24-24 24zm0 0"/><path d="m194.425781 337.390625c-3.378906-1.199219-6.632812-2.613281-9.839843-4.117187-45.464844 31.390624-77.226563 40.023437-85.5625 31.703124-8.429688-8.433593.152343-40.105468 31.640624-85.640624-2.753906-5.839844-4.984374-11.9375-6.695312-18.214844-20.535156 28.214844-60.863281 90.550781-36.257812 115.167968 5.242187 5.238282 12.425781 7.621094 21.066406 7.621094 23.613281 0 58.09375-17.855468 93.597656-43.671875zm0 0"/><path d="m279.328125 130.664062c45.542969-31.503906 77.191406-40.0625 85.648437-31.640624 8.953126 8.953124-1.152343 41.441406-31.679687 85.601562 1.503906 3.199219 2.910156 6.464844 4.117187 9.832031l2.898438 8.117188-.023438.074219c36.285157-49.632813 55.519532-95.417969 36-114.945313-24.632812-24.613281-86.953124 15.703125-115.175781 36.257813 6.285157 1.710937 12.367188 3.949218 18.214844 6.703124zm0 0"/><path d="m232 280c0-13.230469 10.769531-24 24-24 5.128906 0 9.855469 1.648438 13.769531 4.398438 20.964844-21.382813 38.445313-41.796876 52.574219-60.550782-13.265625-37.144531-48.695312-63.847656-90.34375-63.847656-52.9375 0-96 43.0625-96 96 0 41.632812 26.679688 77.054688 63.808594 90.328125 11.3125-8.519531 23.351562-18.40625 35.933594-29.585937-2.335938-3.703126-3.742188-8.054688-3.742188-12.742188zm-64-48h-16c0-44.113281 35.886719-80 80-80v16c-35.289062 0-64 28.710938-64 64zm0 0"/><path d="m279.097656 273.832031c.527344 1.976563.902344 4.015625.902344 6.167969 0 13.230469-10.769531 24-24 24-2.585938 0-5.039062-.511719-7.375-1.28125-9.480469 8.488281-19.175781 16.679688-28.9375 24.402344 4.039062.519531 8.128906.878906 12.3125.878906 52.9375 0 96-43.0625 96-96 0-4.105469-.34375-8.121094-.847656-12.089844-14.441406 18.160156-30.800782 36.480469-48.054688 53.921875zm0 0"/><path d="m264 280c0 4.417969-3.582031 8-8 8s-8-3.582031-8-8 3.582031-8 8-8 8 3.582031 8 8zm0 0"/><path d="m448 280c13.230469 0 24-10.769531 24-24s-10.769531-24-24-24-24 10.769531-24 24 10.769531 24 24 24zm0 0"/></svg>
