<svg width="480" height="480" viewBox="0 0 480 480" fill="none" xmlns="http://www.w3.org/2000/svg">
<path d="M425.824 129.359L410.055 126.641C414.672 99.871 411.121 79.0311 400.039 67.9686C389.023 56.9452 367.832 53.3436 341.367 57.9686L338.617 42.1991C370.535 36.6483 396.457 41.7616 411.352 56.6561C426.441 71.7108 431.441 96.8554 425.824 129.359V129.359Z" fill="white"/>
<path d="M417.09 162.609L401.961 157.391C402.449 155.969 402.93 154.543 403.391 153.121C404.617 149.328 405.719 145.602 406.688 141.945L422.16 146.062C421.113 149.984 419.937 153.977 418.617 158.055C418.121 159.566 417.609 161.09 417.09 162.609Z" fill="white"/>
<path d="M403.398 195.496L389.008 188.504C391.535 183.289 393.887 178.09 396.047 172.91L410.816 179.078C408.527 184.527 406.07 190.008 403.398 195.496V195.496Z" fill="white"/>
<path d="M433.984 34.0156C408.695 8.72659 368.488 1.72659 319.289 13.5742C321.754 18.2578 323.273 23.4414 323.695 28.9844C366.895 18.6953 401.586 24.2461 422.672 45.3282C473.703 96.3594 431.48 221.625 328.551 324.559C245.375 407.734 143.281 452.68 81.7852 436.559C80 441.895 77.1992 446.727 73.4883 450.793C84.3203 454.121 96.1758 455.793 108.887 455.793C175.383 455.793 264.258 411.48 339.871 335.863C450.879 224.84 492.223 92.2578 433.984 34.0156V34.0156Z" fill="white"/>
<path d="M31.5742 386.168C24.664 359.871 28.5117 325.703 42.8086 288H36V272C36 269.77 35.5273 267.648 34.7031 265.719C12.5586 315.375 6.47264 360.406 17.1523 394.551C21.2734 390.801 26.1601 387.961 31.5742 386.168Z" fill="white"/>
<path d="M245.602 42.5938C206.367 63.5742 167.512 92.7617 132.129 128.137C114.414 145.848 98.4258 164.457 83.9922 183.594V192C83.9922 196.586 85.9531 200.688 89.0469 203.609C104.879 181.359 123.047 159.832 143.441 139.441C177.641 105.238 215.121 77.0547 252.895 56.832C249.559 52.6719 247.063 47.8711 245.602 42.5938Z" fill="white"/>
<path d="M444 304H428C428 321.648 413.648 336 396 336V352C413.648 352 428 366.352 428 384H444C444 366.352 458.352 352 476 352V336C458.352 336 444 321.648 444 304Z" fill="white"/>
<path d="M68 192H52C52 209.648 37.6484 224 20 224V240C37.6484 240 52 254.352 52 272H68C68 254.352 82.3516 240 100 240V224C82.3516 224 68 209.648 68 192Z" fill="white"/>
<path d="M276 432C262.77 432 252 442.77 252 456C252 469.23 262.77 480 276 480C289.23 480 300 469.23 300 456C300 442.77 289.23 432 276 432Z" fill="white"/>
<path d="M188 48C201.23 48 212 37.2305 212 24C212 10.7695 201.23 0 188 0C174.77 0 164 10.7695 164 24C164 37.2305 174.77 48 188 48Z" fill="white"/>
<path d="M44 400C30.7695 400 20 410.77 20 424C20 437.23 30.7695 448 44 448C57.2305 448 68 437.23 68 424C68 410.77 57.2305 400 44 400Z" fill="white"/>
<path d="M284 56C297.23 56 308 45.2305 308 32C308 18.7695 297.23 8 284 8C270.77 8 260 18.7695 260 32C260 45.2305 270.77 56 284 56Z" fill="white"/>
<path d="M396 400C378.352 400 364 414.352 364 432C364 449.648 378.352 464 396 464C413.648 464 428 449.648 428 432C428 414.352 413.648 400 396 400Z" fill="white"/>
<path d="M68 0C32.7109 0 4 28.7109 4 64C4 99.2891 32.7109 128 68 128C103.289 128 132 99.2891 132 64C132 28.7109 103.289 0 68 0ZM28 40C28 26.7695 38.7695 16 52 16C65.2305 16 76 26.7695 76 40H60C60 35.5938 56.4141 32 52 32C47.5859 32 44 35.5938 44 40C44 44.4062 47.5859 48 52 48V64C38.7695 64 28 53.2305 28 40ZM68 120C54.7695 120 44 109.23 44 96H60C60 100.406 63.5859 104 68 104C72.4141 104 76 100.406 76 96H92C92 109.23 81.2305 120 68 120ZM92 88V72C96.4141 72 100 68.4062 100 64C100 59.5938 96.4141 56 92 56V40C105.23 40 116 50.7695 116 64C116 77.2305 105.23 88 92 88Z" fill="white"/>
<path d="M198.426 337.391C195.047 336.191 191.793 334.777 188.586 333.273C143.121 364.664 111.359 373.297 103.023 364.977C94.5937 356.543 103.176 324.871 134.664 279.336C131.91 273.496 129.68 267.398 127.969 261.121C107.434 289.336 67.1054 351.672 91.7109 376.289C96.9531 381.527 104.137 383.91 112.777 383.91C136.391 383.91 170.871 366.055 206.375 340.238L198.426 337.391Z" fill="white"/>
<path d="M283.328 130.664C328.871 99.1603 360.52 90.6017 368.977 99.0235C377.93 107.977 367.824 140.465 337.297 184.625C338.801 187.824 340.207 191.09 341.414 194.457L344.312 202.574L344.289 202.649C380.574 153.016 399.809 107.231 380.289 87.7032C355.656 63.09 293.336 103.406 265.113 123.961C271.398 125.672 277.48 127.91 283.328 130.664Z" fill="white"/>
<path d="M236 280C236 266.77 246.77 256 260 256C265.129 256 269.855 257.648 273.77 260.398C294.734 239.016 312.215 218.602 326.344 199.848C313.078 162.703 277.648 136 236 136C183.062 136 140 179.062 140 232C140 273.633 166.68 309.055 203.809 322.328C215.121 313.809 227.16 303.922 239.742 292.742C237.406 289.039 236 284.688 236 280ZM172 232H156C156 187.887 191.887 152 236 152V168C200.711 168 172 196.711 172 232Z" fill="white"/>
<path d="M283.098 273.832C283.625 275.809 284 277.848 284 280C284 293.23 273.23 304 260 304C257.414 304 254.961 303.488 252.625 302.719C243.145 311.207 233.449 319.398 223.688 327.121C227.727 327.641 231.816 328 236 328C288.938 328 332 284.938 332 232C332 227.895 331.656 223.879 331.152 219.91C316.711 238.07 300.352 256.391 283.098 273.832V273.832Z" fill="white"/>
<path d="M268 280C268 284.418 264.418 288 260 288C255.582 288 252 284.418 252 280C252 275.582 255.582 272 260 272C264.418 272 268 275.582 268 280Z" fill="white"/>
<path d="M452 280C465.23 280 476 269.23 476 256C476 242.77 465.23 232 452 232C438.77 232 428 242.77 428 256C428 269.23 438.77 280 452 280Z" fill="white"/>
</svg>
